<?xml version="1.0" encoding="UTF-8" standalone="no"?>
<svg
   xmlns:dc="http://purl.org/dc/elements/1.1/"
   xmlns:cc="http://creativecommons.org/ns#"
   xmlns:rdf="http://www.w3.org/1999/02/22-rdf-syntax-ns#"
   xmlns:svg="http://www.w3.org/2000/svg"
   xmlns="http://www.w3.org/2000/svg"
   xmlns:sodipodi="http://sodipodi.sourceforge.net/DTD/sodipodi-0.dtd"
   xmlns:inkscape="http://www.inkscape.org/namespaces/inkscape"
   viewBox="0 0 32 45.615811"
   version="1.1"
   id="svg25"
   sodipodi:docname="favicon.svg"
   inkscape:version="0.92.3 (2405546, 2018-03-11)"
   width="32"
   height="45.61581">
  <metadata
     id="metadata29">
    <rdf:RDF>
      <cc:Work
         rdf:about="">
        <dc:format>image/svg+xml</dc:format>
        <dc:type
           rdf:resource="http://purl.org/dc/dcmitype/StillImage" />
        <dc:title>logo</dc:title>
      </cc:Work>
    </rdf:RDF>
  </metadata>
  <sodipodi:namedview
     pagecolor="#ffffff"
     bordercolor="#666666"
     borderopacity="1"
     objecttolerance="10"
     gridtolerance="10"
     guidetolerance="10"
     inkscape:pageopacity="0"
     inkscape:pageshadow="2"
     inkscape:window-width="1360"
     inkscape:window-height="706"
     id="namedview27"
     showgrid="false"
     inkscape:zoom="0.44"
     inkscape:cx="718.38469"
     inkscape:cy="135.04539"
     inkscape:window-x="-8"
     inkscape:window-y="-8"
     inkscape:window-maximized="1"
     inkscape:current-layer="svg25"
     fit-margin-top="0"
     fit-margin-left="0"
     fit-margin-right="0"
     fit-margin-bottom="0"
     showguides="true"
     inkscape:guide-bbox="true">
    <sodipodi:guide
       position="-38.636364,215.90912"
       orientation="0,1"
       id="guide908"
       inkscape:locked="false" />
  </sodipodi:namedview>
  <defs
     id="defs13">
    <inkscape:path-effect
       effect="skeletal"
       id="path-effect896"
       is_visible="true"
       pattern="M 0,5 C 0,2.24 2.24,0 5,0 7.76,0 10,2.24 10,5 10,7.76 7.76,10 5,10 2.24,10 0,7.76 0,5 Z"
       copytype="single_stretched"
       prop_scale="1"
       scale_y_rel="false"
       spacing="0"
       normal_offset="0"
       tang_offset="0"
       prop_units="false"
       vertical_pattern="false"
       fuse_tolerance="0" />
    <style
       id="style2">.cls-1{fill:#ffcf00;}.cls-2{fill:#4c5859;fill-rule:evenodd;}.cls-3{fill:url(#Degradado_sin_nombre_10);}</style>
    <radialGradient
       id="Degradado_sin_nombre_10"
       cx="-38.919998"
       cy="653.21997"
       r="300.48999"
       gradientTransform="matrix(0.55,0,0,0.1,-376.45,121.89909)"
       gradientUnits="userSpaceOnUse">
      <stop
         offset="0"
         stop-color="#4c5859"
         stop-opacity="0.3"
         id="stop4" />
      <stop
         offset="0.11"
         stop-color="#4c5859"
         stop-opacity="0.25"
         id="stop6" />
      <stop
         offset="0.61"
         stop-color="#4c5859"
         stop-opacity="0.06"
         id="stop8" />
      <stop
         offset="1"
         stop-color="#4c5859"
         stop-opacity="0"
         id="stop10" />
    </radialGradient>
  </defs>
  <title
     id="title15">logo</title>
  <g
     id="Layer_2"
     data-name="Layer 2"
     transform="matrix(0.10508376,0,0,0.10508376,-0.0015455,0)"
     style="fill:#000e6f;fill-opacity:0.94117647">
    <g
       id="Layer_1-2"
       data-name="Layer 1"
       style="fill:#000e6f;fill-opacity:0.94117647">
      <path
         class="cls-1"
         d="M 152.27,434.09 C -107.44,434.09 15,0 152.27,0 c 137.27,0 259.73,434.09 0,434.09 z"
         id="path17"
         style="fill:#000e6f;fill-opacity:0.94117647"
         inkscape:connector-curvature="0" />
    </g>
  </g>
  <path
     inkscape:connector-curvature="0"
     style="fill:#ffffff;fill-opacity:0.94117647;stroke:#ffffff;stroke-width:0.95951974;stroke-miterlimit:4;stroke-dasharray:none;stroke-opacity:1"
     d="m 18.666246,20.92197 v -1.13906 c -0.664901,-0.0112 -1.35275,-0.2143 -1.753963,-0.49624 l 0.275109,-0.75559 a 2.8037681,2.4280041 0 0 0 1.650805,0.4849 c 0.813956,0 1.364224,-0.46237 1.364224,-1.1052 0,-0.62029 -0.447111,-1.0037 -1.295434,-1.34207 -1.169327,-0.45109 -1.891543,-0.9699 -1.891543,-1.95104 0,-0.93609 0.676375,-1.64658 1.73107,-1.81574 v -1.13906 h 0.710741 v 1.09396 a 2.7892046,2.4153923 0 0 1 1.490332,0.3947 l -0.286637,0.74436 a 2.5332279,2.1937219 0 0 0 -1.444433,-0.38347 c -0.88269,0 -1.215169,0.51877 -1.215169,0.96991 0,0.58643 0.424161,0.87965 1.421541,1.28569 1.180745,0.47366 1.77691,1.06009 1.77691,2.0638 0,0.89094 -0.630533,1.72555 -1.811329,1.91717 v 1.17298 z"
     id="path36" />
  <path
     inkscape:connector-curvature="0"
     style="fill:#ffffff;fill-opacity:0.94117647;stroke:#ffffff;stroke-width:0.33469176;stroke-linecap:round;stroke-miterlimit:4;stroke-dasharray:none;stroke-opacity:1"
     d="M 27.03335,38.319 H 4.032733 A 0.14553568,0.14553568 0 0 1 3.8871584,38.17343 V 15.31838 a 0.14557411,0.14557411 0 0 1 0.2911482,0 V 38.02785 H 27.03335 a 0.145575,0.145575 0 0 1 0,0.29115 z"
     id="path54" />
  <circle
     style="opacity:1;fill:none;fill-opacity:0.94117647;fill-rule:evenodd;stroke:#ffffff;stroke-width:1.4081223;stroke-linecap:round;stroke-linejoin:miter;stroke-miterlimit:4;stroke-dasharray:none;stroke-dashoffset:0;stroke-opacity:1;paint-order:markers fill stroke"
     id="path890"
     cx="18.678282"
     cy="16.686935"
     transform="rotate(-0.7220422)"
     r="6.6723795" />
  <path
     style="fill:#ffffff;fill-opacity:0.94117647;stroke:#ffffff;stroke-width:1.18682611;stroke-linecap:round;stroke-linejoin:miter;stroke-miterlimit:4;stroke-dasharray:none;stroke-opacity:1"
     d="m 23.28848,21.59427 6.765383,7.19295"
     id="path898"
     inkscape:connector-curvature="0" />
  <rect
     style="fill:#ffffff;fill-opacity:0.94117647;stroke-width:0.14839797"
     x="-25.371675"
     y="30.661095"
     width="2.5727775"
     height="5.0424442"
     id="rect46"
     transform="scale(-1,1)" />
  <rect
     style="fill:#ffffff;fill-opacity:0.94117647;stroke-width:0.12781756"
     x="-20.200735"
     y="27.214745"
     width="2.5727775"
     height="8.4887705"
     id="rect48"
     transform="scale(-1,1)" />
  <rect
     style="fill:#ffffff;fill-opacity:0.94117647;stroke:#ffffff;stroke-width:0.12074201;stroke-opacity:1"
     x="-14.826837"
     y="24.262505"
     width="2.5871613"
     height="11.448239"
     id="rect50"
     transform="scale(-1,1)" />
  <rect
     style="fill:#ffffff;fill-opacity:0.94117647;stroke:#ffffff;stroke-width:0.1439686;stroke-opacity:1"
     x="-9.1673088"
     y="19.441948"
     width="2.5727775"
     height="16.367348"
     id="rect50-2"
     transform="scale(-1,1)" />
</svg>
